<?xml version="1.0" encoding="UTF-8"?>
<!DOCTYPE svg PUBLIC "-//W3C//DTD SVG 1.1//EN" "http://www.w3.org/Graphics/SVG/1.1/DTD/svg11.dtd">
<!-- Creator: CorelDRAW -->
<svg xmlns="http://www.w3.org/2000/svg" xml:space="preserve" width="250px" height="250px" version="1.1" style="shape-rendering:geometricPrecision; text-rendering:geometricPrecision; image-rendering:optimizeQuality; fill-rule:evenodd; clip-rule:evenodd"
viewBox="0 0 3.17 3.17"
 xmlns:xlink="http://www.w3.org/1999/xlink"
 xmlns:xodm="http://www.corel.com/coreldraw/odm/2003">
 <defs>
  <style type="text/css">
   <![CDATA[
    .fil0 {fill:#D6B56E}
    .fil1 {fill:white}
   ]]>
  </style>
 </defs>
 <g id="Слой_x0020_1">
  <metadata id="CorelCorpID_0Corel-Layer"/>
  <polygon class="fil0" points="0,3.17 3.17,3.17 3.17,0 0,0 "/>
  <path class="fil1" d="M1.59 2.03l-0.27 0c-0.02,0 -0.03,0 -0.03,-0.02 -0.01,-0.03 0,-0.41 0,-0.42 0,-0.07 -0.02,-0.08 0.07,-0.08l0.45 0c0.08,0 0.07,0.01 0.07,0.08 0,0.03 0,0.05 0,0.07l0 0.21c0,0.02 0,0.04 0,0.06 0,0.12 0.02,0.1 -0.16,0.1l-0.07 0c-0.02,0 -0.04,0 -0.06,0zm-0.23 -0.65l0.01 -0.1c0.01,-0.07 0.08,-0.14 0.17,-0.14l0.12 0c0.02,0 0.06,0.03 0.07,0.03 0.05,0.03 0.08,0.09 0.08,0.14l0 0.12 -0.45 0 0 -0.05zm-0.08 0.06c-0.01,0 -0.02,0.02 -0.03,0.03 -0.01,0 -0.02,0.01 -0.03,0.03 -0.01,0.02 -0.01,0.03 -0.01,0.08l0 0.15 0 0.12 0 0.12 0 0.05c0.01,0.03 0.04,0.06 0.06,0.07 0.03,0.02 0.06,0.01 0.1,0.02 0.03,0 0.32,0 0.36,0 0.02,0 0.14,0 0.15,-0.01 0.02,0 0.07,-0.05 0.08,-0.08 0,-0.04 0,-0.36 0,-0.39 0,-0.07 0.01,-0.12 -0.04,-0.16 0,-0.01 -0.02,-0.02 -0.03,-0.03 0,-0.02 0,-0.05 0,-0.08 -0.01,-0.06 -0.01,-0.12 -0.04,-0.17 -0.04,-0.06 -0.11,-0.11 -0.17,-0.12 -0.05,-0.01 -0.14,-0.01 -0.18,-0.01 -0.06,0.01 -0.09,0.04 -0.13,0.07 -0.02,0.02 -0.01,0.01 -0.02,0.02 0,0.01 0,0.01 -0.01,0.01 -0.07,0.09 -0.06,0.16 -0.06,0.28z"/>
  <path class="fil1" d="M0.76 0.84c0,-0.05 0.02,-0.07 0.07,-0.08 0.02,0 0.04,0.01 0.05,0.02 0.04,0.02 0.05,0.13 -0.04,0.13 -0.05,0 -0.08,-0.03 -0.08,-0.07zm-0.07 -0.01c0,0.06 0.03,0.1 0.07,0.13 0.01,0.01 0.02,0.01 0.04,0.02l0 0.14c0,0.01 0,0.02 0,0.04 0,0.06 -0.01,0.05 0.03,0.11 0.02,0.04 0.05,0.06 0.09,0.08 0.02,0 0.02,0.01 0.04,0.01 0.03,0 0.06,0 0.09,0 0.03,0 0.05,0 0.09,0l0 -0.08c-0.04,0 -0.14,0.01 -0.18,0 -0.05,-0.01 -0.08,-0.05 -0.08,-0.12l0 -0.17c0,-0.02 0.04,-0.02 0.07,-0.07 0.03,-0.04 0.04,-0.06 0.03,-0.1 0,-0.07 -0.07,-0.13 -0.14,-0.13 -0.05,0 -0.08,0.01 -0.11,0.04 -0.02,0.02 -0.04,0.06 -0.04,0.1z"/>
  <path class="fil1" d="M0.76 2.34c0,-0.02 0.01,-0.05 0.02,-0.06 0.02,-0.03 0.08,-0.03 0.11,0 0.02,0.02 0.02,0.03 0.02,0.06 0,0.04 -0.03,0.06 -0.06,0.06 -0.02,0 -0.03,0.01 -0.05,0 -0.02,-0.01 -0.04,-0.04 -0.04,-0.06zm0.04 -0.15c-0.03,0 -0.06,0.03 -0.07,0.05 -0.05,0.04 -0.05,0.11 -0.03,0.15 0.01,0.03 0.05,0.06 0.08,0.08 0.02,0.01 0.06,0.01 0.09,0.01 0.05,-0.01 0.12,-0.08 0.12,-0.15 0,-0.06 -0.04,-0.11 -0.09,-0.13 -0.01,-0.01 -0.02,-0.01 -0.02,-0.02l0 -0.17c0,-0.06 0.01,-0.07 0.03,-0.1 0.03,-0.03 0.07,-0.03 0.11,-0.03l0.12 0 0 -0.07c-0.04,0 -0.17,0 -0.2,0 -0.01,0.01 -0.03,0.02 -0.05,0.03 -0.03,0.02 -0.05,0.04 -0.07,0.07 -0.02,0.04 -0.02,0.05 -0.02,0.09 0,0.02 0,0.02 0,0.04 0,0.05 0,0.1 0,0.15z"/>
  <path class="fil1" d="M2.41 0.83c0,0.09 -0.1,0.08 -0.12,0.07 -0.05,-0.04 -0.04,-0.16 0.07,-0.13 0.03,0 0.05,0.03 0.05,0.06zm-0.23 -0.01c0,0.05 0.01,0.08 0.04,0.11 0.04,0.05 0.07,0.04 0.07,0.06l0 0.16c0,0.06 0,0.08 -0.03,0.11 -0.03,0.02 -0.08,0.02 -0.12,0.02l-0.11 0 0 0.08c0.03,0 0.06,0 0.09,0 0.03,0 0.06,0 0.09,0 0.03,0 0.09,-0.04 0.11,-0.07 0.02,-0.01 0.05,-0.07 0.05,-0.08 0,-0.02 0,-0.04 0,-0.05 0,-0.03 0,-0.06 0,-0.09 0,-0.03 0,-0.06 0,-0.09 0.02,0 0.06,-0.03 0.08,-0.05 0.02,-0.03 0.03,-0.05 0.03,-0.1 0,-0.03 -0.01,-0.06 -0.02,-0.08 -0.08,-0.1 -0.2,-0.08 -0.26,0.02 -0.01,0.01 -0.02,0.03 -0.02,0.05z"/>
  <path class="fil1" d="M2.33 2.26c0.02,0 0.04,0 0.06,0.02 0.03,0.03 0.02,0.12 -0.05,0.12 -0.02,0 -0.04,0 -0.06,-0.02 -0.02,-0.01 -0.02,-0.05 -0.02,-0.08 0.01,-0.02 0.04,-0.04 0.07,-0.04zm-0.3 -0.38c0.05,0 0.14,0 0.18,0.01 0.02,0 0.03,0.01 0.05,0.02 0.03,0.03 0.03,0.05 0.03,0.11l0 0.16c0,0.01 -0.03,0.01 -0.06,0.05 -0.04,0.04 -0.06,0.09 -0.04,0.15 0.02,0.04 0.07,0.09 0.12,0.1 0.02,0 0.03,0 0.05,0 0.05,-0.01 0.12,-0.07 0.12,-0.14 0,-0.06 -0.02,-0.09 -0.07,-0.13 -0.01,-0.01 -0.02,-0.02 -0.04,-0.02 0,-0.03 0,-0.06 0,-0.09l0 -0.13c0,-0.02 -0.01,-0.02 -0.01,-0.04 -0.01,-0.02 -0.03,-0.05 -0.05,-0.07l-0.04 -0.02c-0.01,-0.01 -0.04,-0.03 -0.06,-0.03 -0.03,0 -0.06,0 -0.09,0 -0.03,0 -0.06,0 -0.09,0l0 0.07z"/>
  <path class="fil1" d="M1.82 2.4l-0.02 0c-0.04,0 -0.06,-0.02 -0.06,-0.06l0 -0.01c0,-0.09 0.14,-0.09 0.14,0 0,0.04 -0.02,0.07 -0.06,0.07zm0.03 0.38l-0.08 0 0 -0.3c0,0 -0.01,-0.01 -0.02,-0.01 -0.05,-0.03 -0.09,-0.08 -0.09,-0.14 0,-0.11 0.15,-0.21 0.25,-0.1 0.04,0.04 0.05,0.06 0.05,0.12 0,0.06 -0.08,0.12 -0.11,0.13l0 0.3z"/>
  <path class="fil1" d="M1.37 0.91c-0.05,0 -0.08,-0.02 -0.08,-0.07 0,-0.02 0,-0.04 0.02,-0.06 0.03,-0.03 0.12,-0.03 0.12,0.06 0,0.04 -0.02,0.07 -0.06,0.07zm-0.05 -0.23c0,0.02 -0.04,0.02 -0.07,0.06 -0.02,0.02 -0.02,0.03 -0.03,0.05 -0.01,0.03 -0.01,0.08 0,0.11 0.03,0.04 0.08,0.08 0.12,0.08 0.05,0 0.07,0 0.11,-0.03 0.02,-0.02 0.03,-0.03 0.04,-0.05 0.02,-0.03 0.02,-0.04 0.02,-0.08 0,-0.06 -0.08,-0.13 -0.11,-0.13l0 -0.3 -0.08 0 0 0.29z"/>
  <path class="fil1" d="M1.82 0.91c-0.06,0 -0.08,-0.03 -0.08,-0.08 0,-0.04 0.02,-0.06 0.07,-0.07 0,0 0.02,0 0.03,0.01 0.01,0 0.01,0 0.02,0.01 0.04,0.03 0.03,0.13 -0.04,0.13zm-0.05 -0.23c0,0.02 -0.07,0.03 -0.1,0.11 -0.02,0.04 -0.01,0.1 0.02,0.13l0.03 0.04c0.04,0.02 0.06,0.02 0.1,0.02 0.04,0 0.07,-0.02 0.09,-0.04 0.02,-0.01 0.02,-0.02 0.03,-0.04 0.02,-0.03 0.02,-0.04 0.02,-0.08 0,-0.06 -0.08,-0.13 -0.11,-0.13l0 -0.3 -0.08 0 0 0.29z"/>
  <path class="fil1" d="M1.37 2.4c-0.02,0 -0.04,0.01 -0.06,-0.01 -0.03,-0.03 -0.03,-0.13 0.04,-0.13 0.05,0 0.08,0.02 0.08,0.07 0,0.02 0,0.04 -0.01,0.05 -0.01,0.01 -0.03,0.02 -0.05,0.02zm0.03 0.38l-0.08 0 0 -0.3c0,0 -0.01,-0.01 -0.02,-0.01 -0.05,-0.03 -0.09,-0.08 -0.09,-0.14 0,-0.08 0.1,-0.18 0.21,-0.13 0.02,0 0.03,0.01 0.04,0.03 0.03,0.02 0.05,0.05 0.05,0.1 0,0.04 -0.01,0.07 -0.04,0.1 -0.02,0.02 -0.05,0.04 -0.07,0.05l0 0.3z"/>
  <path class="fil1" d="M0.54 1.66c-0.09,0 -0.09,-0.1 -0.06,-0.13 0.04,-0.04 0.13,-0.02 0.13,0.05 0,0.02 -0.01,0.04 -0.02,0.05 -0.01,0.02 -0.03,0.03 -0.05,0.03zm-0.15 -0.07l0 -0.01c0,-0.11 0.14,-0.19 0.23,-0.12 0.02,0.02 0.06,0.06 0.06,0.08l0.01 0.01 0.3 0 0 0.07 -0.3 0 -0.01 0.01c0,0.01 -0.01,0.01 -0.01,0.02 -0.03,0.05 -0.09,0.09 -0.16,0.08 -0.02,0 -0.03,-0.01 -0.05,-0.02 -0.01,0 -0.03,-0.02 -0.03,-0.03 -0.03,-0.03 -0.04,-0.06 -0.04,-0.09z"/>
  <path class="fil1" d="M2.64 1.66c-0.11,0 -0.1,-0.15 -0.01,-0.15 0.05,0 0.07,0.02 0.07,0.07 0.01,0.04 -0.02,0.08 -0.06,0.08zm0.14 -0.09l0 0.03c0,0.02 0,0.03 -0.01,0.04 -0.02,0.05 -0.07,0.08 -0.12,0.09 -0.09,0.02 -0.16,-0.07 -0.16,-0.1l-0.01 -0.01 -0.3 0 0 -0.07 0.3 0 0.01 -0.01c0,-0.02 0.04,-0.06 0.06,-0.08 0.06,-0.05 0.15,-0.03 0.19,0.03 0.01,0.01 0.02,0.02 0.03,0.04 0.01,0.01 0.01,0.02 0.01,0.04z"/>
  <path class="fil1" d="M1.51 1.69c0,0.06 0.04,0.06 0.04,0.07l0 0.16 0.07 0 0 -0.16c0,-0.01 0.04,-0.02 0.04,-0.06 0,-0.05 -0.07,-0.11 -0.12,-0.06 -0.01,0.01 -0.03,0.03 -0.03,0.05z"/>
  <polygon class="fil1" points="1.06,1.62 1.14,1.62 1.14,1.55 1.06,1.55 "/>
  <polygon class="fil1" points="2.03,1.62 2.11,1.62 2.11,1.55 2.03,1.55 "/>
 </g>
</svg>
