<?xml version="1.0" encoding="UTF-8"?>
<!DOCTYPE svg PUBLIC "-//W3C//DTD SVG 1.1//EN" "http://www.w3.org/Graphics/SVG/1.1/DTD/svg11.dtd">
<!-- Creator: CorelDRAW -->
<svg xmlns="http://www.w3.org/2000/svg" xml:space="preserve" width="781px" height="781px" version="1.1" style="shape-rendering:geometricPrecision; text-rendering:geometricPrecision; image-rendering:optimizeQuality; fill-rule:evenodd; clip-rule:evenodd"
viewBox="0 0 781 781"
 xmlns:xlink="http://www.w3.org/1999/xlink"
 xmlns:xodm="http://www.corel.com/coreldraw/odm/2003">
 <defs>
  <style type="text/css">
   <![CDATA[
    .fil0 {fill:#D6B56E}
    .fil1 {fill:#FF5C5C}
    .fil2 {fill:white}
   ]]>
  </style>
 </defs>
 <g id="Слой_x0020_1">
  <metadata id="CorelCorpID_0Corel-Layer"/>
  <polygon class="fil0" points="0,781 781,781 781,0 0,0 "/>
  <path class="fil1" d="M273.78 186.43c1.41,3.97 4.18,7.43 6.39,11.49 2.08,3.8 4.25,7.57 6.33,11.23 10.75,18.89 29.38,49.28 37.91,66.42 11.42,-4.86 13.75,-7.78 29.36,-12.35 23.29,-6.84 50,-7.06 73.34,-0.11 7.78,2.32 24.36,8.38 29.28,12.59 1.45,-4.11 22.62,-40.51 25.14,-44.84l12.86 -22.24c1.95,-3.52 4.36,-7.66 6.33,-11.23 1.84,-3.32 4.28,-8.05 6.2,-10.81 -6.74,-6.54 -40.38,-18.9 -51.42,-22.05 -41.65,-11.92 -87.9,-12.25 -129.59,0.01 -13.86,4.07 -27.23,9.16 -39.93,15.49 -4.12,2.05 -8.24,4.74 -12.2,6.4z"/>
  <path class="fil1" d="M274.58 594.28c7.96,6.93 39.21,18.48 51.94,22.15 41.65,11.98 87.97,11.77 129.47,-0.31 13.36,-3.89 41.96,-14.62 50.98,-21.78 -0.48,-0.32 -49.5,-84.52 -50.94,-88.68 -22.52,10.76 -39.55,17.48 -66.73,17.13 -26.8,-0.34 -43.45,-6.95 -65.32,-18.13 1.29,2.49 -3.23,8.51 -4.87,11.15 -2.33,3.75 -4.22,7.42 -6.42,11.13l-18.99 33.82c-1.72,2.91 -4.22,6.85 -6.57,10.84 -2.28,3.88 -11.73,19.48 -12.55,22.68z"/>
  <path class="fil1" d="M506.32 325.32c3.31,9.18 7.75,13.68 11.92,29.2 10.03,37.24 4.55,68.29 -12.09,100.75l58.71 32.73c1.34,0.8 1.16,0.6 2.55,1.39l17.09 9.55c3.54,1.92 8.05,4.85 11.34,6.19 40.52,-69.51 38.71,-161.89 -0.58,-230.54l-88.94 50.73z"/>
  <path class="fil1" d="M185.5 504.54c2.91,-0.9 8.49,-4.39 11.2,-5.83l33.56 -19.08c14.5,-8.48 30.07,-16.39 44.48,-24.7l0.66 0.43 -0.66 -0.43c-1.09,-3.85 -7.48,-14.44 -11.51,-28.68 -6.69,-23.64 -6.41,-48.08 -0.02,-71.69 1.44,-5.32 3.29,-10.33 5.26,-15.14 2.02,-4.94 4.8,-9.32 6.71,-14 -7.37,-3.39 -15.56,-8.58 -22.86,-12.58 -15.68,-8.59 -54.54,-31.61 -66.68,-37.35 -17.68,34.55 -29.89,68.08 -29.96,114.57 -0.03,21.81 3.09,43.73 8.64,63.49 3.9,13.89 14.13,41.55 21.18,50.99z"/>
  <path class="fil2" d="M456.03 505.66c1.44,4.16 50.46,88.36 50.94,88.68 12.51,-5.31 40.2,-27.65 50.85,-38.58l20.5 -23.72c6.2,-8.34 11.55,-17.01 17.52,-26.91 -3.29,-1.34 -7.8,-4.27 -11.34,-6.19l-17.09 -9.55c-1.39,-0.79 -1.21,-0.59 -2.55,-1.39l-58.71 -32.73c-12.99,20.85 -20.61,30.61 -42.48,45.65 -2.48,1.71 -5.22,3.06 -7.64,4.74z"/>
  <path class="fil2" d="M185.5 504.54c5.54,13.63 28.82,41.75 38.5,51.52 3.95,3.98 19.43,17.89 24,20.94l13.13 9.34c2.95,1.94 10.38,7.07 13.45,7.94 0.82,-3.2 10.27,-18.8 12.55,-22.68 2.35,-3.99 4.85,-7.93 6.57,-10.84l18.99 -33.82c2.2,-3.71 4.09,-7.38 6.42,-11.13 1.64,-2.64 6.16,-8.66 4.87,-11.15 -7.95,-3.96 -22.06,-15.3 -27.93,-21.34 -5.39,-5.55 -17.64,-21.44 -20.65,-27.96l-0.66 -0.43c-14.41,8.31 -29.98,16.22 -44.48,24.7l-33.56 19.08c-2.71,1.44 -8.29,4.93 -11.2,5.83z"/>
  <path class="fil2" d="M456.39 275.7c9.27,3.84 22.69,15.92 28.36,21.72 3.95,4.03 7.71,8.12 11.49,13.09 3.53,4.63 6.75,9.52 10.08,14.81l88.94 -50.73c-3.02,-4.8 -5.61,-9.06 -8.52,-13.86 -4.69,-7.73 -10.41,-13.66 -14.05,-18.94 -1.52,-2.2 -3.24,-4.15 -5.05,-6.21 -2.01,-2.29 -3.52,-3.61 -5.4,-5.82 -9.56,-11.18 -43.61,-39.69 -55.32,-43.18 -1.92,2.76 -4.36,7.49 -6.2,10.81 -1.97,3.57 -4.38,7.71 -6.33,11.23l-12.86 22.24c-2.52,4.33 -23.69,40.73 -25.14,44.84z"/>
  <path class="fil2" d="M185.64 275.49c12.14,5.74 51,28.76 66.68,37.35 7.3,4 15.49,9.19 22.86,12.58l9.73 -14.47c19.9,-26.4 33.85,-29.98 39.5,-35.38 -8.53,-17.14 -27.16,-47.53 -37.91,-66.42 -2.08,-3.66 -4.25,-7.43 -6.33,-11.23 -2.21,-4.06 -4.98,-7.52 -6.39,-11.49 -0.84,0.7 -18.69,11.96 -26.12,17.74 -10.53,8.21 -25.8,21.31 -34.16,31.85 -3.19,4.02 -7.04,8.2 -10.09,12.36 -8.41,11.48 -11.11,17.3 -17.77,27.11z"/>
 </g>
</svg>
